<?xml version="1.0" encoding="UTF-8" standalone="no"?>
<svg width="61px" height="38px" viewBox="0 0 61 38" version="1.1" xmlns="http://www.w3.org/2000/svg" xmlns:xlink="http://www.w3.org/1999/xlink" xmlns:sketch="http://www.bohemiancoding.com/sketch/ns">
    <!-- Generator: Sketch 3.3.3 (12081) - http://www.bohemiancoding.com/sketch -->
    <title>CV</title>
    <desc>Created with Sketch.</desc>
    <defs></defs>
    <g id="Page-3" stroke="none" stroke-width="1" fill="none" fill-rule="evenodd" sketch:type="MSPage">
        <g id="Desktop-Portrait" sketch:type="MSArtboardGroup" transform="translate(-398.000000, -445.000000)" stroke="#3B2FBF" stroke-width="2" fill="#3020DF" fill-opacity="0.75">
            <path d="M423.721074,480.562048 C422.872053,480.854814 421.869344,481.103661 420.712918,481.308597 C419.556493,481.513533 418.187832,481.616 416.606896,481.616 C414.089108,481.616 411.783611,481.198815 409.690334,480.364432 C407.597057,479.530049 405.803892,478.344364 404.310785,476.807343 C402.817679,475.270321 401.653951,473.425923 400.819568,471.274093 C399.985185,469.122263 399.568,466.728937 399.568,464.094043 C399.568,461.517702 399.985185,459.153652 400.819568,457.001822 C401.653951,454.849992 402.817679,453.005594 404.310785,451.468572 C405.803892,449.931551 407.597057,448.738547 409.690334,447.889526 C411.783611,447.040504 414.089108,446.616 416.606896,446.616 C417.924343,446.616 419.197856,446.696509 420.427473,446.857531 C421.65709,447.018552 422.79886,447.26008 423.852818,447.582123 C424.26269,447.728506 424.474943,447.904163 424.489581,448.109099 C424.504219,448.314035 424.511538,448.562883 424.511538,448.855649 L424.423709,452.632311 C424.423709,453.130013 424.306604,453.408137 424.072391,453.46669 C423.838179,453.525243 423.457589,453.481329 422.93061,453.334946 C421.613163,452.95435 420.434797,452.698184 419.395478,452.566439 C418.356159,452.434694 417.28026,452.368823 416.167749,452.368823 C414.528259,452.368823 413.057132,452.654266 411.754324,453.225159 C410.451515,453.796053 409.34634,454.601147 408.438765,455.640467 C407.531191,456.679786 406.835882,457.916704 406.352818,459.351257 C405.869754,460.785811 405.628226,462.366723 405.628226,464.094043 C405.628226,465.792085 405.891711,467.351041 406.41869,468.770956 C406.945669,470.190871 407.677573,471.42047 408.614424,472.459789 C409.551275,473.499109 410.65645,474.333479 411.929982,474.962926 C413.203515,475.592373 414.601451,475.980282 416.123834,476.126665 C417.529111,476.273048 418.875815,476.221815 420.163985,475.972964 C421.452155,475.724113 422.506097,475.453308 423.325842,475.160542 C423.706438,475.014159 423.955285,474.977564 424.072391,475.050755 C424.189498,475.123947 424.262688,475.306923 424.291965,475.599689 L424.511538,479.55201 C424.540815,479.874053 424.496901,480.093624 424.379794,480.21073 C424.262688,480.327837 424.043117,480.444941 423.721074,480.562048 L423.721074,480.562048 Z M446.017184,480.342474 C445.870801,480.664517 445.746378,480.854812 445.64391,480.913365 C445.541442,480.971918 445.373104,481.001194 445.138891,481.001194 L440.703508,481.001194 C440.498572,481.001194 440.344872,480.971918 440.242404,480.913365 C440.139936,480.854812 440.015512,480.664517 439.869129,480.342474 L428.187824,448.240843 C428.012165,447.743141 427.982889,447.44306 428.099995,447.340592 C428.217101,447.238124 428.539139,447.186891 429.066118,447.186891 L433.325842,447.186891 C433.647885,447.186891 433.867456,447.223486 433.984562,447.296678 C434.101669,447.369869 434.218773,447.567483 434.33588,447.889526 L442.855327,473.008723 L451.550434,447.889526 C451.667541,447.567483 451.791964,447.369869 451.923709,447.296678 C452.055454,447.223486 452.282344,447.186891 452.604386,447.186891 L456.908025,447.186891 C457.405727,447.186891 457.698489,447.245443 457.786319,447.36255 C457.874148,447.479656 457.830234,447.772418 457.654575,448.240843 L446.017184,480.342474 Z" id="CV" sketch:type="MSShapeGroup"></path>
        </g>
    </g>
</svg>