<?xml version="1.0" encoding="UTF-8" standalone="no"?>
<svg width="36px" height="36px" viewBox="0 0 36 36" version="1.1" xmlns="http://www.w3.org/2000/svg" xmlns:xlink="http://www.w3.org/1999/xlink" xmlns:sketch="http://www.bohemiancoding.com/sketch/ns">
    <!-- Generator: Sketch 3.3.3 (12081) - http://www.bohemiancoding.com/sketch -->
    <title>download</title>
    <desc>Created with Sketch.</desc>
    <defs></defs>
    <g id="Page-3" stroke="none" stroke-width="1" fill="none" fill-rule="evenodd" sketch:type="MSPage">
        <g id="Desktop-Portrait" sketch:type="MSArtboardGroup" transform="translate(-536.000000, -68.000000)">
            <g id="download" sketch:type="MSLayerGroup" transform="translate(537.000000, 69.000000)">
                <path d="M0,17 C0,26.4 7.6,34 17,34 C26.4,34 34,26.4 34,17 C34,7.6 26.4,0 17,0 C7.6,0 0,7.6 0,17 Z M17,29 L7,17 L13,17 L13,7 L21,7 L21,17 L27,17 L17,29 L17,29 Z" id="Shape" fill-opacity="0.75" fill="#2E1FD9" sketch:type="MSShapeGroup"></path>
                <path d="M21,7 L21,17 L27,17 L17,29 L7,17 L13,17 L13,7 L21,7 L21,7 Z M21,5 L13,5 C11.9,5 11,5.9 11,7 L11,15 L7,15 C6.2,15 5.5,15.4 5.2,16.2 C4.9,16.9 5,17.7 5.5,18.3 L15.5,30.3 C15.9,30.8 16.4,31 17,31 C17.6,31 18.2,30.7 18.5,30.3 L28.5,18.3 C29,17.7 29.1,16.9 28.8,16.2 C28.5,15.5 27.8,15 27,15 L23,15 L23,7 C23,5.9 22.1,5 21,5 L21,5 L21,5 Z" id="Shape" fill="#3B2FBF" sketch:type="MSShapeGroup"></path>
                <path d="M17,0 C7.6,0 0,7.6 0,17 C0,26.4 7.6,34 17,34 C26.4,34 34,26.4 34,17 C34,7.6 26.4,0 17,0 L17,0 Z" id="Shape" stroke="#3B2FBF" stroke-width="2" sketch:type="MSShapeGroup"></path>
            </g>
        </g>
    </g>
</svg>