<?xml version="1.0" encoding="UTF-8" standalone="no"?>
<svg width="38px" height="37px" viewBox="0 0 38 37" version="1.1" xmlns="http://www.w3.org/2000/svg" xmlns:xlink="http://www.w3.org/1999/xlink" xmlns:sketch="http://www.bohemiancoding.com/sketch/ns">
    <!-- Generator: Sketch 3.3.3 (12081) - http://www.bohemiancoding.com/sketch -->
    <title>edit</title>
    <desc>Created with Sketch.</desc>
    <defs></defs>
    <g id="Page-3" stroke="none" stroke-width="1" fill="none" fill-rule="evenodd" sketch:type="MSPage">
        <g id="Desktop-Portrait" sketch:type="MSArtboardGroup" transform="translate(-554.000000, -162.000000)">
            <g id="edit" sketch:type="MSLayerGroup" transform="translate(556.000000, 163.000000)">
                <rect id="Rectangle-path" stroke="#3B2FBF" stroke-width="1.99998082" fill-opacity="0.75" fill="#2E1FD9" sketch:type="MSShapeGroup" transform="translate(15.700525, 18.308545) rotate(225.000000) translate(-15.700525, -18.308545) " x="12.05056" y="4.4086783" width="7.29992999" height="27.7997334"></rect>
                <rect id="Rectangle-path" stroke="#3B2FBF" stroke-width="1.99998082" sketch:type="MSShapeGroup" transform="translate(27.305950, 6.727100) rotate(225.000000) translate(-27.305950, -6.727100) " x="23.655985" y="4.17712445" width="7.29992999" height="5.09995109"></rect>
                <path d="M26.5,2.4 L31.7,7.6 L33,6.3 C34.4,4.9 34.4,2.6 33,1.1 L33,1.1 C31.6,-0.3 29.3,-0.3 27.8,1.1 L26.5,2.4 L26.5,2.4 Z" id="Shape" stroke="#3B2FBF" stroke-width="2" fill-opacity="0.75" fill="#2E1FD9" sketch:type="MSShapeGroup"></path>
                <path d="M3.3,25.6 L8.4,30.7 L0,34 L3.3,25.6 Z" id="Shape" stroke="#3B2FBF" stroke-width="2" sketch:type="MSShapeGroup"></path>
                <path d="M0,34 L4.1,32.4 L1.6,29.9 L0,34 Z" id="Shape" fill="#3B2FBF" sketch:type="MSShapeGroup"></path>
            </g>
        </g>
    </g>
</svg>