<?xml version="1.0" encoding="UTF-8" standalone="no"?>
<svg width="30px" height="30px" viewBox="0 0 30 30" version="1.1" xmlns="http://www.w3.org/2000/svg" xmlns:xlink="http://www.w3.org/1999/xlink" xmlns:sketch="http://www.bohemiancoding.com/sketch/ns">
    <!-- Generator: Sketch 3.3.3 (12081) - http://www.bohemiancoding.com/sketch -->
    <title>plus</title>
    <desc>Created with Sketch.</desc>
    <defs></defs>
    <g id="Page-3" stroke="none" stroke-width="1" fill="none" fill-rule="evenodd" sketch:type="MSPage">
        <g id="Desktop-Portrait" sketch:type="MSArtboardGroup" transform="translate(-512.000000, -353.000000)" stroke="#3B2FBF" stroke-width="2" fill="#2E1FD9" fill-opacity="0.75">
            <g id="plus" sketch:type="MSLayerGroup" transform="translate(513.000000, 354.000000)">
                <path d="M27,11 L17,11 L17,1 C17,0.4 16.6,0 16,0 L12,0 C11.4,0 11,0.4 11,1 L11,11 L1,11 C0.4,11 0,11.4 0,12 L0,16 C0,16.6 0.4,17 1,17 L11,17 L11,27 C11,27.6 11.4,28 12,28 L16,28 C16.6,28 17,27.6 17,27 L17,17 L27,17 C27.6,17 28,16.6 28,16 L28,12 C28,11.4 27.6,11 27,11 L27,11 Z" id="Shape" sketch:type="MSShapeGroup"></path>
            </g>
        </g>
    </g>
</svg>