<?xml version="1.0" encoding="UTF-8" standalone="no"?>
<svg width="32px" height="34px" viewBox="0 0 32 34" version="1.1" xmlns="http://www.w3.org/2000/svg" xmlns:xlink="http://www.w3.org/1999/xlink" xmlns:sketch="http://www.bohemiancoding.com/sketch/ns">
    <!-- Generator: Sketch 3.3.3 (12081) - http://www.bohemiancoding.com/sketch -->
    <title>sort</title>
    <desc>Created with Sketch.</desc>
    <defs></defs>
    <g id="Page-3" stroke="none" stroke-width="1" fill="none" fill-rule="evenodd" sketch:type="MSPage">
        <g id="Desktop-Portrait" sketch:type="MSArtboardGroup" transform="translate(-460.000000, -364.000000)" stroke="#3B2FBF" stroke-width="2" fill="#2E1FD9" fill-opacity="0.75">
            <g id="sort" sketch:type="MSLayerGroup" transform="translate(461.000000, 365.000000)">
                <g id="play" transform="translate(15.500000, 25.000000) rotate(90.000000) translate(-15.500000, -25.000000) translate(9.000000, 10.000000)" sketch:type="MSShapeGroup">
                    <path d="M12.5894737,16.4602552 L1.02631579,29.4575526 C0.547368421,30.0165762 0,29.3177967 0,28.1997497 L0,2.20515484 C0,1.08710775 0.547368421,0.528084203 1.02631579,0.947351861 L12.5894737,13.9446493 C13.0684211,14.5036728 13.0684211,15.9012317 12.5894737,16.4602552 L12.5894737,16.4602552 Z" id="Shape"></path>
                </g>
                <g id="play-copy" transform="translate(15.500000, 7.000000) scale(1, -1) rotate(90.000000) translate(-15.500000, -7.000000) translate(9.000000, -8.000000)" sketch:type="MSShapeGroup">
                    <path d="M12.6393659,16.2269869 L1.03038309,28.9085678 C0.549537649,29.4540121 0,28.7722067 0,27.681318 L0,2.31815631 C0,1.22726763 0.549537649,0.681823295 1.03038309,1.09090655 L12.6393659,13.7724874 C13.1202114,14.3179318 13.1202114,15.6815426 12.6393659,16.2269869 L12.6393659,16.2269869 Z" id="Shape"></path>
                </g>
            </g>
        </g>
    </g>
</svg>