<?xml version="1.0" encoding="UTF-8" standalone="no"?>
<svg width="37px" height="37px" viewBox="0 0 37 37" version="1.1" xmlns="http://www.w3.org/2000/svg" xmlns:xlink="http://www.w3.org/1999/xlink" xmlns:sketch="http://www.bohemiancoding.com/sketch/ns">
    <!-- Generator: Sketch 3.3.3 (12081) - http://www.bohemiancoding.com/sketch -->
    <title>tag</title>
    <desc>Created with Sketch.</desc>
    <defs></defs>
    <g id="Page-3" stroke="none" stroke-width="1" fill="none" fill-rule="evenodd" sketch:type="MSPage">
        <g id="Desktop-Portrait" sketch:type="MSArtboardGroup" transform="translate(-417.000000, -337.000000)" stroke="#3B2FBF" stroke-width="2" fill="#2E1FD9" fill-opacity="0.75">
            <g id="tag" sketch:type="MSLayerGroup" transform="translate(418.000000, 337.000000)">
                <path d="M35,2.9 C35,1.9 34.1,1 33.1,1 L21.6,1 C20.6,1 19.6,0.9 19,1.5 L1.4,19.1 C0.8,19.7 0.8,20.6 1.4,21.2 L14.8,34.6 C15.4,35.2 16.3,35.2 16.9,34.6 L34.5,17 C35.1,16.4 35,15.5 35,14.4 L35,2.9 L35,2.9 Z M28.5,10 C27.1,10 26,8.9 26,7.5 C26,6.1 27.1,5 28.5,5 C29.9,5 31,6.1 31,7.5 C31,8.9 29.9,10 28.5,10 L28.5,10 Z" id="Shape" sketch:type="MSShapeGroup"></path>
            </g>
        </g>
    </g>
</svg>