<?xml version="1.0" encoding="UTF-8" standalone="no"?>
<svg width="26px" height="26px" viewBox="0 0 26 26" version="1.1" xmlns="http://www.w3.org/2000/svg" xmlns:xlink="http://www.w3.org/1999/xlink" xmlns:sketch="http://www.bohemiancoding.com/sketch/ns">
    <!-- Generator: Sketch 3.3.3 (12081) - http://www.bohemiancoding.com/sketch -->
    <title>plus</title>
    <desc>Created with Sketch.</desc>
    <defs></defs>
    <g id="Page-3" stroke="none" stroke-width="1" fill="none" fill-rule="evenodd" sketch:type="MSPage">
        <g id="Desktop-Portrait" sketch:type="MSArtboardGroup" transform="translate(-514.000000, -355.000000)" stroke="#3B2FBF" stroke-width="2" fill="#2E1FD9" fill-opacity="0.75">
            <g id="plus" sketch:type="MSLayerGroup" transform="translate(507.000000, 348.000000)">
                <path d="M23,17 L23,7 C23,6.4 22.6,6 22,6 L18,6 C17.4,6 17,6.4 17,7 L17,17 L7,17 C6.4,17 6,17.4 6,18 L6,22 C6,22.6 6.4,23 7,23 L17,23 L17,33 C17,33.6 17.4,34 18,34 L22,34 C22.6,34 23,33.6 23,33 L23,23 L33,23 C33.6,23 34,22.6 34,22 L34,18 C34,17.4 33.6,17 33,17 L23,17 Z" id="Shape" sketch:type="MSShapeGroup" transform="translate(20.000000, 20.000000) rotate(-45.000000) translate(-20.000000, -20.000000) "></path>
            </g>
        </g>
    </g>
</svg>